<svg xmlns="http://www.w3.org/2000/svg" width="270" height="54.64" viewBox="0 0 270 54.64"><title>logo0</title><g id="Layer_2" data-name="Layer 2"><g id="Layer_1-2" data-name="Layer 1"><path d="M134.06,4.77H134m.11,0-5.45,21.38h-6L130.43.42H138l8,25.73h-6.26Z" fill="#02a9f7"/><path d="M171.79,25.46a17,17,0,0,1-6.56,1.1c-8.9,0-13.48-5.57-13.48-12.93C151.75,4.85,158,0,165.8,0a15.14,15.14,0,0,1,6.34,1.15l-1.23,4.58a12.32,12.32,0,0,0-4.89-1c-4.58,0-8.16,2.78-8.16,8.55,0,5.16,3,8.4,8.2,8.4a13.75,13.75,0,0,0,4.89-.84Z" fill="#02a9f7"/><polygon points="185.7 5.3 178.75 5.3 178.75 0.42 198.52 0.42 198.52 5.3 191.49 5.3 191.49 26.15 185.7 26.15 185.7 5.3" fill="#02a9f7"/><path d="M230.61,26.15,222.36.42h6.38l3.12,10.88c.88,3.09,1.69,6,2.3,9.2h.1c.66-3.1,1.46-6.15,2.34-9.08l3.28-11h6.18L237.4,26.15Z" fill="#02a9f7"/><polygon points="268.88 15.28 259.42 15.28 259.42 21.38 269.99 21.38 269.99 26.15 253.61 26.15 253.61 0.42 269.46 0.42 269.46 5.19 259.42 5.19 259.42 10.54 268.88 10.54 268.88 15.28" fill="#02a9f7"/><polygon points="10.69 3.36 10.58 3.36 10.69 3.36 3.44 26.15 0 26.15 8.75 0.42 12.75 0.42 21.53 26.15 17.98 26.15 10.69 3.36" fill="#424242"/><path d="M43.14,26.15l-3.33-5.69c-1.33-2.17-2.13-3.59-2.93-5.08H36.8c-.72,1.49-1.48,2.87-2.79,5.12l-3.09,5.65H27.1l7.86-13L27.41.42h3.86l3.4,6c.94,1.68,1.68,3,2.36,4.35h.12c.72-1.52,1.37-2.7,2.32-4.35l3.47-6H46.8L39,12.94l8,13.21Z" fill="#424242"/><path d="M63.6,23.86c5.27,0,8.25-4.85,8.25-10.7,0-5.1-2.68-10.45-8.22-10.45s-8.28,5.16-8.28,10.73c0,5.41,3,10.42,8.21,10.42Zm-.15,2.7c-6.84,0-11.57-5.26-11.57-13C51.88,5.34,56.92,0,63.79,0c7.06,0,11.6,5.38,11.6,13,0,8.81-5.37,13.54-11.9,13.54Z" fill="#424242"/><path d="M83.6,26.15V.42h3.66l8.21,13a69.78,69.78,0,0,1,4.58,8.35l.11,0c-.3-3.44-.38-6.56-.38-10.54V.42h3.14V26.15H99.55l-8.16-13a72.84,72.84,0,0,1-4.77-8.59l-.12,0c.18,3.24.22,6.32.22,10.61v11Z" fill="#424242"/><rect x="207.92" y="0.43" width="5.8" height="25.72" fill="#02a9f7"/><path d="M6.69,36.19a6.69,6.69,0,1,0,6.69,6.68A6.69,6.69,0,0,0,6.69,36.19Zm3.91,7.69L3.45,46.47V44.35l5.26-1.49v0L3.45,41.3v-2l7.15,2.6Z" fill="#424242"/><path d="M24,49.94H21.89V34.62H32.5v1.83H24v4.7h7.51V43H24Z" fill="#424242"/><path d="M39.56,38.46c3.57,0,5.19,3,5.19,5.89s-1.62,5.89-5.19,5.89-5.18-3-5.18-5.89S36,38.46,39.56,38.46Zm0,10.16c2.69,0,3.25-2.77,3.25-4.27s-.56-4.27-3.25-4.27-3.24,2.78-3.24,4.27S36.87,48.62,39.56,48.62Z" fill="#424242"/><path d="M55,42.54a2.48,2.48,0,0,0-2.64-2.39c-2.33,0-3.08,2.22-3.08,4.2s.47,4.29,3,4.29c1.26,0,2.35-.94,2.67-2.65h1.82a4.41,4.41,0,0,1-4.55,4.27c-3.14,0-5-2.37-5-5.59,0-3.46,1.67-6.21,5.36-6.21,2.93,0,4,2.13,4.19,4.08Z" fill="#424242"/><path d="M67.19,49.94V48.32l0,0a3.68,3.68,0,0,1-3.55,2C62,50.26,60,49.47,60,46.81v-8h1.88v7.41c0,1.83.94,2.45,2.16,2.45,2.37,0,3.07-2.09,3.07-3.71V38.78H69V49.94Z" fill="#424242"/><path d="M79.29,42c0-.7-.27-1.88-2.64-1.88-.58,0-2.22.19-2.22,1.58,0,.92.57,1.13,2,1.5l1.87.46c2.33.58,3.14,1.44,3.14,3,0,2.31-1.9,3.69-4.42,3.69-4.42,0-4.74-2.56-4.8-3.9h1.81c.07.87.32,2.28,3,2.28,1.35,0,2.56-.53,2.56-1.77,0-.9-.62-1.2-2.22-1.6l-2.17-.54c-1.56-.38-2.59-1.17-2.59-2.71,0-2.45,2-3.56,4.23-3.56,4,0,4.27,2.94,4.27,3.5Z" fill="#424242"/><path d="M84.85,36.75V34.62h1.87v2.13Zm1.87,13.19H84.85V38.78h1.87Z" fill="#424242"/><path d="M99.81,49.94H97.93V43.07c0-1.94-.55-2.92-2.39-2.92-1.07,0-3,.68-3,3.71v6.08H90.72V38.78h1.77v1.58h0a4,4,0,0,1,3.37-1.9c1.73,0,3.91.7,3.91,3.88Z" fill="#424242"/><path d="M113,49c0,1.6,0,5.61-5.18,5.61-1.33,0-3.91-.36-4.27-3.33h1.88A2.29,2.29,0,0,0,108,53.08c3.24,0,3.18-2.6,3.18-3.93v-.47h-.05v.09a3.34,3.34,0,0,1-3,1.49c-3.8,0-4.91-3.56-4.91-6.23,0-3.14,1.68-5.57,4.65-5.57a3.78,3.78,0,0,1,3.33,1.9h0V38.78H113Zm-4.84-.39c1.19,0,3-.79,3-3.76,0-1.81-.3-4.73-3-4.73-2.9,0-3,2.75-3,4.18C105.17,46.78,106.13,48.64,108.18,48.64Z" fill="#424242"/><path d="M128.46,38.46c3.57,0,5.19,3,5.19,5.89s-1.62,5.89-5.19,5.89-5.19-3-5.19-5.89S124.9,38.46,128.46,38.46Zm0,10.16c2.69,0,3.24-2.77,3.24-4.27s-.55-4.27-3.24-4.27-3.24,2.78-3.24,4.27S125.77,48.62,128.46,48.62Z" fill="#424242"/><path d="M146.05,49.94h-1.88V43.07c0-1.94-.55-2.92-2.39-2.92-1.07,0-2.94.68-2.94,3.71v6.08H137V38.78h1.77v1.58h0a4,4,0,0,1,3.37-1.9c1.73,0,3.91.7,3.91,3.88Z" fill="#424242"/><path d="M164.09,38.78h2.07c-1.3,3.65-2.58,7.3-4,10.95-1.77,4.53-2,4.78-4.38,4.78a2.61,2.61,0,0,1-.79-.17V52.63a3.18,3.18,0,0,0,1.13.2c1,0,1.09-.28,2-2.59L156,38.78h2.13l3,9.09h0Z" fill="#424242"/><path d="M173.08,38.46c3.56,0,5.19,3,5.19,5.89s-1.63,5.89-5.19,5.89-5.19-3-5.19-5.89S169.51,38.46,173.08,38.46Zm0,10.16c2.69,0,3.24-2.77,3.24-4.27s-.55-4.27-3.24-4.27-3.25,2.78-3.25,4.27S170.39,48.62,173.08,48.62Z" fill="#424242"/><path d="M188.86,49.94V48.32l-.05,0a3.68,3.68,0,0,1-3.54,2c-1.65,0-3.63-.79-3.63-3.45v-8h1.88v7.41c0,1.83.94,2.45,2.15,2.45,2.37,0,3.08-2.09,3.08-3.71V38.78h1.88V49.94Z" fill="#424242"/><path d="M196.75,49.94h-1.87V38.78h1.77v1.86h0a3.62,3.62,0,0,1,3.14-2.18,1.63,1.63,0,0,1,.49.06v1.95h-.7a2.83,2.83,0,0,0-2.87,3Z" fill="#424242"/><path d="M210,42.17c.08-2.67,1.85-3.71,4.61-3.71.9,0,4.14.26,4.14,3.12V48c0,.47.23.66.62.66a3.9,3.9,0,0,0,.62-.08v1.36a3.34,3.34,0,0,1-1,.22c-1.66,0-1.92-.86-2-1.71a5.09,5.09,0,0,1-4,1.81,3.21,3.21,0,0,1-3.5-3.22c0-.94.28-3.12,3.4-3.5l3.09-.38c.45,0,1-.22,1-1.33S216,40,214.24,40c-2.14,0-2.44,1.3-2.56,2.15Zm6.87,2.07c-.3.24-.77.41-3.09.71-.92.13-2.39.4-2.39,1.81a1.76,1.76,0,0,0,2,2c1.75,0,3.46-1.14,3.46-2.63Z" fill="#424242"/><path d="M232.32,49c0,1.6,0,5.61-5.19,5.61-1.32,0-3.9-.36-4.27-3.33h1.88a2.29,2.29,0,0,0,2.52,1.77c3.25,0,3.18-2.6,3.18-3.93v-.47h0v.09a3.35,3.35,0,0,1-3,1.49c-3.8,0-4.91-3.56-4.91-6.23,0-3.14,1.69-5.57,4.66-5.57a3.79,3.79,0,0,1,3.33,1.9h0V38.78h1.77Zm-4.85-.39c1.2,0,3.06-.79,3.06-3.76,0-1.81-.3-4.73-3-4.73-2.91,0-3.06,2.75-3.06,4.18C224.46,46.78,225.43,48.64,227.47,48.64Z" fill="#424242"/><path d="M236.14,36.75V34.62H238v2.13ZM238,49.94h-1.88V38.78H238Z" fill="#424242"/><path d="M243.93,49.94h-1.87V34.62h1.87Z" fill="#424242"/><path d="M248,36.75V34.62h1.88v2.13Zm1.88,13.19H248V38.78h1.88Z" fill="#424242"/><path d="M256.15,40.34V47.6c0,.87.74.87,1.13.87h.66v1.47c-.68.07-1.22.15-1.41.15-1.86,0-2.26-1-2.26-2.39V40.34h-1.52V38.78h1.52V35.66h1.88v3.12h1.79v1.56Z" fill="#424242"/><path d="M267.93,38.78H270c-1.3,3.65-2.58,7.3-4,10.95-1.78,4.53-2,4.78-4.38,4.78a2.61,2.61,0,0,1-.79-.17V52.63a3.18,3.18,0,0,0,1.13.2c1,0,1.09-.28,2-2.59L259.8,38.78h2.13l3,9.09h0Z" fill="#424242"/></g></g></svg>